PathFileType	4	(X/Y/Z)	SUBJ62_2_walk_RCNL2025.trc
DataRate	CameraRate	NumFrames	NumMarkers	Units	OrigDataRate	OrigDataStartFrame	OrigNumFrames
100	100	12	25	mm	100	77	306
Frame#	Time	R_Shoulder			L_Shoulder			C7			J_Notch			R_Elbow			L_Elbow			R_Wrist			L_Wrist			R_Asis			L_Asis			Sacral			Thoracic			Sternum			R_Thigh_Lateral			R_Knee_Lateral			R_Shank_Lateral			R_Ankle_Lateral			R_Heel			R_Toe			L_Thigh_Lateral			L_Knee_Lateral			L_Shank_Lateral			L_Ankle_Lateral			L_Heel			L_Toe		
		X1	Y1	Z1	X2	Y2	Z2	X3	Y3	Z3	X4	Y4	Z4	X5	Y5	Z5	X6	Y6	Z6	X7	Y7	Z7	X8	Y8	Z8	X9	Y9	Z9	X10	Y10	Z10	X11	Y11	Z11	X12	Y12	Z12	X13	Y13	Z13	X14	Y14	Z14	X15	Y15	Z15	X16	Y16	Z16	X17	Y17	Z17	X18	Y18	Z18	X19	Y19	Z19	X20	Y20	Z20	X21	Y21	Z21	X22	Y22	Z22	X23	Y23	Z23	X24	Y24	Z24	X25	Y25	Z25
77	0.76000000	-333.856995	1270.638428	-38.679031	-370.385376	1278.795532	-377.384705	-420.831512	1339.938599	-197.931107	-293.279114	1255.637573	-214.357376	-315.417145	976.932800	36.256992	-463.234467	985.611755	-418.021118	-177.245041	806.206757	-0.382306	-464.477341	766.133667	-416.029007	-323.109253	855.888611	-49.515453	-280.511932	863.276367	-308.075256	-474.636597	862.989868	-208.743286	-487.633545	1145.342651	-197.538971	-276.621399	1055.674927	-205.259476	-440.868286	471.058533	-3.624598	-436.575500	411.268677	-74.376259	-552.484619	275.214844	-51.912682	-686.627808	152.136124	-140.911575	-727.837463	180.753265	-185.823868	-631.752441	60.971123	-163.110657	-242.153793	474.316956	-340.498413	-244.225479	411.488464	-287.590942	-208.164017	218.952454	-305.197693	-214.588272	53.159798	-231.900162	-275.537506	49.712292	-192.974686	-107.789398	39.772472	-213.664474
78	0.77000000	-322.094604	1272.378052	-39.164852	-358.669952	1280.239990	-377.434540	-409.326538	1341.391724	-198.245285	-281.843170	1257.000977	-214.630005	-308.797302	978.157349	36.056381	-447.347260	986.070068	-419.798706	-176.446129	802.456421	2.102409	-444.638779	766.572479	-417.864975	-311.827576	857.294312	-50.253597	-270.356201	865.342773	-308.749847	-464.130615	864.316711	-208.522354	-476.411499	1146.958496	-197.614746	-265.555817	1056.975952	-205.363586	-418.920868	470.648560	0.348540	-415.756866	410.301422	-70.504128	-534.799805	277.832062	-48.182091	-673.369873	159.757156	-137.129745	-712.957886	190.749725	-182.018112	-624.135559	64.697746	-160.206894	-233.360703	475.332336	-340.755310	-238.120728	411.894043	-287.967529	-204.898651	218.489212	-305.443390	-214.298767	53.061398	-232.021667	-275.268646	50.001118	-193.211502	-107.538269	39.481850	-213.583694
79	0.78000000	-310.612549	1274.024780	-39.505569	-347.029510	1281.634766	-377.409698	-397.926910	1342.770020	-198.491211	-270.525452	1258.297241	-214.812180	-302.363190	979.361694	35.899658	-431.352386	986.494629	-421.684235	-175.963135	798.962433	4.631101	-424.280334	767.053833	-419.738159	-300.742981	858.647095	-50.981495	-260.386627	867.132751	-309.482758	-453.797089	865.554016	-208.339630	-465.319214	1148.509888	-197.729050	-254.611557	1058.211792	-205.403687	-396.411774	470.477753	4.443483	-394.657593	409.574219	-66.700111	-516.416138	280.482544	-44.557888	-659.048462	167.349243	-133.357758	-697.051819	200.193726	-178.381256	-614.638855	69.251495	-156.628098	-226.171021	475.840729	-341.143402	-232.959885	412.076080	-288.368347	-202.478256	217.968567	-305.753967	-214.109818	52.974079	-232.106766	-275.076111	50.230743	-193.387024	-107.369049	39.310734	-213.493195
80	0.79000000	-299.383667	1275.534790	-39.687057	-335.473450	1282.937012	-377.316284	-386.604065	1344.073608	-198.658295	-259.322845	1259.495972	-214.912079	-296.103333	980.506287	35.797516	-415.280518	986.855408	-423.664703	-175.710571	795.717407	7.187902	-403.447083	767.578766	-421.641647	-289.853577	859.942444	-51.667469	-250.578247	868.593933	-310.249207	-443.622253	866.684998	-208.186478	-454.355896	1149.999756	-197.870331	-243.807861	1059.361206	-205.389893	-373.765106	470.626221	8.458504	-373.430023	409.218536	-63.073589	-497.443909	283.219879	-41.104996	-643.678101	174.752060	-129.641205	-680.206238	208.841705	-174.987122	-603.021484	74.449654	-152.352051	-220.562195	475.884369	-341.649597	-228.586258	412.077850	-288.765778	-200.626343	217.435364	-306.075653	-213.986908	52.895412	-232.154678	-274.935822	50.422230	-193.507278	-107.252472	39.203182	-213.373505
81	0.80000000	-288.367126	1276.878174	-39.712868	-324.014374	1284.123169	-377.162567	-375.338013	1345.313110	-198.748108	-248.229858	1260.578979	-214.941193	-290.006348	981.573792	35.761936	-399.151550	987.141479	-425.726349	-175.612556	792.708801	9.753947	-382.181656	768.168396	-423.567093	-279.142059	861.194519	-52.295921	-240.910477	869.718140	-311.018890	-433.584045	867.710815	-208.054474	-443.518158	1151.439575	-198.024948	-233.160568	1060.411255	-205.336624	-351.467529	471.157135	12.196368	-352.194397	409.338287	-59.708225	-477.970734	286.114502	-37.852718	-627.260376	181.774521	-125.987061	-662.479004	216.470932	-171.859756	-589.159546	80.004730	-147.428665	-216.363922	475.541107	-342.237122	-224.817886	411.945709	-289.132324	-199.078033	216.923279	-306.357025	-213.901871	52.825405	-232.169083	-274.826935	50.593334	-193.579559	-107.165161	39.121670	-213.215088
82	0.81000000	-277.519745	1278.041870	-39.601391	-312.665497	1285.188477	-376.960358	-364.124176	1346.505493	-198.778641	-237.239899	1261.542725	-214.915100	-284.063385	982.566040	35.804600	-382.976440	987.361633	-427.853455	-175.617462	789.933197	12.313360	-360.527649	768.860199	-425.499435	-268.577637	862.429749	-52.868328	-231.371033	870.533081	-311.759430	-423.655975	868.650208	-207.935699	-432.799103	1152.839355	-198.181473	-222.674850	1061.356079	-205.263718	-329.984802	472.099274	15.491308	-331.033630	409.992615	-56.655605	-458.051422	289.218658	-34.801517	-609.786987	188.203888	-122.374947	-643.909424	222.897629	-168.963257	-573.052917	85.572853	-141.987350	-213.318085	474.910065	-342.852875	-221.485199	411.725494	-289.442719	-197.639297	216.451965	-306.563416	-213.831802	52.765965	-232.155441	-274.732422	50.757385	-193.611633	-107.090477	39.044178	-213.016571
83	0.82000000	-266.804626	1279.028687	-39.381680	-301.437927	1286.144043	-376.724915	-352.978516	1347.669067	-198.788300	-226.346786	1262.395752	-214.851044	-278.268494	983.498108	35.934269	-366.760437	987.540955	-430.026398	-175.697258	787.403046	14.856837	-338.532547	769.702118	-427.415115	-258.123230	863.679260	-53.397068	-221.954300	871.090027	-312.440948	-413.811401	869.534668	-207.821655	-422.185974	1154.201782	-198.331192	-212.342514	1062.197754	-205.194824	-309.664917	473.431152	18.226093	-309.992188	411.190277	-53.935349	-437.707703	292.534119	-31.931992	-591.242676	193.814102	-118.782188	-624.536804	227.985718	-166.209854	-554.797668	90.817711	-136.213058	-211.131973	474.101044	-343.438019	-218.452423	411.458893	-289.673950	-196.215027	216.029205	-306.686523	-213.760345	52.717922	-232.118301	-274.640717	50.923679	-193.611496	-107.018066	38.960598	-212.784760
84	0.83000000	-256.195129	1279.855591	-39.088440	-290.339142	1287.011597	-376.473724	-341.940674	1348.820923	-198.839249	-215.546249	1263.152954	-214.762527	-272.618500	984.393738	36.154606	-350.505768	987.715271	-432.220276	-175.833405	785.142914	17.379211	-316.248444	770.744720	-429.283676	-247.743698	864.970947	-53.897671	-212.656906	871.450928	-313.042297	-404.026947	870.399170	-207.702194	-411.663239	1155.520996	-198.467972	-202.144745	1062.944580	-205.152039	-290.663513	475.078125	20.339361	-289.082092	412.895721	-51.543533	-416.939575	295.995422	-29.214506	-571.607605	198.379456	-115.208260	-604.413818	231.643677	-163.488525	-534.537659	95.462273	-130.311874	-209.512253	473.225739	-343.939911	-215.622147	411.183289	-289.809937	-194.800842	215.654739	-306.742371	-213.679184	52.679169	-232.059799	-274.546295	51.098595	-193.586838	-106.942520	38.867821	-212.531708
85	0.84000000	-245.675888	1280.549683	-38.756031	-279.373383	1287.817261	-376.223969	-331.070465	1349.977539	-199.012329	-204.836197	1263.831177	-214.658386	-267.112305	985.280884	36.463699	-334.214600	987.924927	-434.405121	-176.006218	783.183044	19.874856	-293.730942	772.034332	-431.070908	-237.408966	866.322815	-54.383980	-203.472107	871.677673	-313.558777	-394.284943	871.272400	-207.564438	-401.218964	1156.787354	-198.588867	-192.057617	1063.609741	-205.150925	-272.916412	476.929688	21.826937	-268.298340	415.042603	-49.465252	-395.743256	299.472107	-26.620626	-550.867371	201.704651	-111.679939	-583.605347	233.814758	-160.701752	-512.421448	99.310387	-124.483803	-208.180206	472.388702	-344.322266	-212.928406	410.931793	-289.847137	-193.448456	215.323715	-306.759796	-213.586761	52.645981	-231.980392	-274.448029	51.287170	-193.543961	-106.861732	38.765980	-212.268677
86	0.85000000	-235.241928	1281.143066	-38.412300	-268.542908	1288.585571	-375.989349	-320.429504	1351.150635	-199.381729	-194.215118	1264.446045	-214.547714	-261.748749	986.189087	36.854618	-317.892334	988.207642	-436.547089	-176.192085	781.552643	22.334802	-271.037254	773.608368	-432.740799	-227.090927	867.739746	-54.865009	-194.383041	871.825378	-314.007874	-384.574127	872.168457	-207.391418	-390.846039	1157.990234	-198.693817	-182.056885	1064.207642	-205.199478	-256.168152	478.871307	22.739382	-247.638046	417.548309	-47.683762	-374.129517	302.790741	-24.131962	-529.027710	203.660522	-108.234886	-562.171936	234.467682	-157.792160	-488.589325	102.243210	-118.897095	-206.877975	471.676086	-344.568329	-210.325195	410.729858	-289.794647	-192.222092	215.029251	-306.767181	-213.485123	52.615116	-231.881088	-274.346161	51.494030	-193.486710	-106.774818	38.657669	-212.002731
87	0.86000000	-224.894318	1281.667603	-38.075493	-257.848267	1289.335083	-375.778351	-310.050720	1352.338867	-199.976593	-183.680237	1265.010986	-214.442825	-256.524780	987.146484	37.316242	-301.549774	988.592712	-438.610016	-176.363358	780.273956	24.746292	-248.224152	775.493958	-434.257629	-216.758698	869.213196	-55.342144	-185.363083	871.938293	-314.423706	-374.888763	873.083313	-207.161438	-380.537720	1159.118164	-198.782303	-172.120834	1064.751465	-205.299911	-240.046631	480.813416	23.173109	-227.115585	420.326172	-46.183613	-352.135681	305.771301	-21.742245	-506.118683	204.196777	-104.904617	-540.150879	233.590408	-154.751511	-463.184692	104.204033	-113.663475	-205.375763	471.142670	-344.677887	-207.774017	410.589905	-289.669952	-191.162064	214.763916	-306.782349	-213.376617	52.584789	-231.764938	-274.239746	51.723362	-193.416946	-106.680664	38.547241	-211.738647
88	0.87000000	-214.633713	1282.150146	-37.755596	-247.287186	1290.076904	-375.594208	-299.912415	1353.518188	-200.753983	-173.229050	1265.535034	-214.355530	-251.434525	988.176086	37.834412	-285.203430	989.096924	-440.557831	-176.488518	779.358246	27.093642	-225.345383	777.708740	-435.590897	-206.377625	870.723877	-55.807652	-176.387085	872.047241	-314.841125	-365.226105	873.996887	-206.848892	-370.284454	1160.158569	-198.850449	-162.231567	1065.250244	-205.449738	-224.161835	482.706940	23.254337	-206.768524	423.293610	-44.950165	-329.824768	308.261566	-19.455143	-482.189514	203.328049	-101.709572	-517.549133	231.186783	-151.614639	-436.364532	105.181747	-108.827515	-203.484009	470.802399	-344.663757	-205.234131	410.507904	-289.492950	-190.264740	214.521286	-306.808594	-213.261322	52.555061	-231.637314	-274.126617	51.978642	-193.336884	-106.577576	38.439240	-211.481262
